<?xml version="1.0" encoding="UTF-8" standalone="no"?>

<svg class="layer layer-template" width="1000px" height="375px" viewBox="0 0 1000 375" version="1.1"
     xmlns="http://www.w3.org/2000/svg" xmlns:xlink="http://www.w3.org/1999/xlink">
  <g transform="translate(500.000000, 0.000000)">
    <rect class="left keykey-70" data-key="70" x="425" y="220" width="50" height="50"></rect>
    <rect class="left keykey-65" data-key="65" x="425" y="168" width="75" height="50"></rect>
    <rect class="left keykey-58" data-key="58" x="425" y="116" width="75" height="50"></rect>
    <rect class="left keykey-52" data-key="52" x="425" y="64" width="75" height="50"></rect>
    <rect class="left keykey-45" data-key="45" x="425" y="12" width="75" height="50"></rect>
    <rect class="left keykey-69" data-key="69" x="373" y="220" width="50" height="50"></rect>
    <rect class="left keykey-64" data-key="64" x="373" y="168" width="50" height="50"></rect>
    <rect class="left keykey-57" data-key="57" x="373" y="116" width="50" height="50"></rect>
    <rect class="left keykey-51" data-key="51" x="373" y="64" width="50" height="50"></rect>
    <rect class="left keykey-44" data-key="44" x="373" y="12" width="50" height="50"></rect>
    <rect class="left keykey-68" data-key="68" x="321" y="212" width="50" height="50"></rect>
    <rect class="left keykey-63" data-key="63" x="321" y="160" width="50" height="50"></rect>
    <rect class="left keykey-56" data-key="56" x="321" y="108" width="50" height="50"></rect>
    <rect class="left keykey-50" data-key="50" x="321" y="56" width="50" height="50"></rect>
    <rect class="left keykey-43" data-key="43" x="321" y="4" width="50" height="50"></rect>
    <rect class="left keykey-67" data-key="67" x="269" y="208" width="50" height="50"></rect>
    <rect class="left keykey-62" data-key="62" x="269" y="156" width="50" height="50"></rect>
    <rect class="left keykey-55" data-key="55" x="269" y="104" width="50" height="50"></rect>
    <rect class="left keykey-49" data-key="49" x="269" y="52" width="50" height="50"></rect>
    <rect class="left keykey-42" data-key="42" x="269" y="0" width="50" height="50"></rect>
    <rect class="left keykey-66" data-key="66" x="217" y="212" width="50" height="50"></rect>
    <rect class="left keykey-61" data-key="61" x="217" y="160" width="50" height="50"></rect>
    <rect class="left keykey-54" data-key="54" x="217" y="108" width="50" height="50"></rect>
    <rect class="left keykey-48" data-key="48" x="217" y="56" width="50" height="50"></rect>
    <rect class="left keykey-41" data-key="41" x="217" y="4" width="50" height="50"></rect>
    <rect class="left keykey-60" data-key="60" x="165" y="164" width="50" height="50"></rect>
    <rect class="left keykey-53" data-key="53" x="165" y="112" width="50" height="50"></rect>
    <rect class="left keykey-47" data-key="47" x="165" y="60" width="50" height="50"></rect>
    <rect class="left keykey-40" data-key="40" x="165" y="8" width="50" height="50"></rect>
    <rect class="left keykey-59" data-key="59" x="113" y="139" width="50" height="75"></rect>
    <rect class="left keykey-46" data-key="46" x="113" y="61" width="50" height="75"></rect>
    <rect class="left keykey-39" data-key="39" x="113" y="8" width="50" height="50"></rect>
    <g transform="translate(103.546846, 271.000000) rotate(-25.000000) translate(-103.546846, -271.000000) translate(26.046846, 194.000000)">
      <rect class="left keykey-75" data-key="75" x="53" y="53" width="50" height="100"></rect>
      <rect class="left keykey-72" data-key="72" x="53" y="5.68434189e-14" width="50" height="50"></rect>
      <rect class="left keykey-76" data-key="76" x="105" y="53" width="50" height="100"></rect>
      <rect class="left keykey-74" data-key="74" x="1" y="104" width="50" height="50"></rect>
      <rect class="left keykey-73" data-key="73" x="1" y="52" width="50" height="50"></rect>
      <rect class="left keykey-71" data-key="71" x="1" y="5.68434189e-14" width="50" height="50"></rect>
    </g>
  </g>
  <g>
    <rect class="right keykey-27" data-key="27" x="337" y="139" width="50" height="75"></rect>
    <rect class="right keykey-14" data-key="14" x="337" y="61" width="50" height="75"></rect>
    <rect class="right keykey-7" data-key="7" x="337" y="8" width="50" height="50"></rect>
    <rect class="right keykey-26" data-key="26" x="285" y="164" width="50" height="50"></rect>
    <rect class="right keykey-20" data-key="20" x="285" y="112" width="50" height="50"></rect>
    <rect class="right keykey-13" data-key="13" x="285" y="60" width="50" height="50"></rect>
    <rect class="right keykey-6" data-key="6" x="285" y="8" width="50" height="50"></rect>
    <rect class="right keykey-32" data-key="32" x="233" y="212" width="50" height="50"></rect>
    <rect class="right keykey-25" data-key="25" x="233" y="160" width="50" height="50"></rect>
    <rect class="right keykey-19" data-key="19" x="233" y="108" width="50" height="50"></rect>
    <rect class="right keykey-12" data-key="12" x="233" y="56" width="50" height="50"></rect>
    <rect class="right keykey-5" data-key="5" x="233" y="4" width="50" height="50"></rect>
    <rect class="right keykey-31" data-key="31" x="181" y="208" width="50" height="50"></rect>
    <rect class="right keykey-24" data-key="24" x="181" y="156" width="50" height="50"></rect>
    <rect class="right keykey-18" data-key="18" x="181" y="104" width="50" height="50"></rect>
    <rect class="right keykey-11" data-key="11" x="181" y="52" width="50" height="50"></rect>
    <rect class="right keykey-4" data-key="4" x="181" y="0" width="50" height="50"></rect>
    <rect class="right keykey-30" data-key="30" x="129" y="212" width="50" height="50"></rect>
    <rect class="right keykey-23" data-key="23" x="129" y="160" width="50" height="50"></rect>
    <rect class="right keykey-17" data-key="17" x="129" y="108" width="50" height="50"></rect>
    <rect class="right keykey-10" data-key="10" x="129" y="56" width="50" height="50"></rect>
    <rect class="right keykey-3" data-key="3" x="129" y="4" width="50" height="50"></rect>
    <rect class="right keykey-29" data-key="29" x="77" y="220" width="50" height="50"></rect>
    <rect class="right keykey-22" data-key="22" x="77" y="168" width="50" height="50"></rect>
    <rect class="right keykey-16" data-key="16" x="77" y="116" width="50" height="50"></rect>
    <rect class="right keykey-9" data-key="9" x="77" y="64" width="50" height="50"></rect>
    <rect class="right keykey-2" data-key="2" x="77" y="12" width="50" height="50"></rect>
    <rect class="right keykey-28" data-key="28" x="25" y="220" width="50" height="50"></rect>
    <rect class="right keykey-21" data-key="21" x="0" y="168" width="75" height="50"></rect>
    <rect class="right keykey-15" data-key="15" x="0" y="116" width="75" height="50"></rect>
    <rect class="right keykey-8" data-key="8" x="0" y="64" width="75" height="50"></rect>
    <rect class="right keykey-1" data-key="1" x="0" y="12" width="75" height="50"></rect>
    <g transform="translate(397.733614, 271.211309) rotate(25.000000) translate(-397.733614, -271.211309) translate(320.233614, 193.711309)">
      <rect class="right keykey-37" data-key="37" x="52" y="53" width="50" height="100"></rect>
      <rect class="right keykey-36" data-key="36" x="5.68434189e-14" y="53" width="50" height="100"></rect>
      <rect class="right keykey-38" data-key="38" x="104" y="104" width="50" height="50"></rect>
      <rect class="right keykey-35" data-key="35" x="104" y="52" width="50" height="50"></rect>
      <rect class="right keykey-34" data-key="34" x="104" y="0" width="50" height="50"></rect>
      <rect class="right keykey-33" data-key="33" x="52" y="2.84217094e-14" width="50" height="50"></rect>
    </g>
  </g>
</svg>
